<?xml version="1.0" encoding="UTF-8" standalone="no"?>
<!DOCTYPE svg PUBLIC "-//W3C//DTD SVG 1.1//EN"
 "http://www.w3.org/Graphics/SVG/1.1/DTD/svg11.dtd">
<!-- Generated by graphviz version 14.1.2 (0)
 -->
<!-- Title: ControllerBrokerMetadata Pages: 1 -->
<svg width="823pt" height="257pt"
 viewBox="0.00 0.00 823.00 257.00" xmlns="http://www.w3.org/2000/svg" xmlns:xlink="http://www.w3.org/1999/xlink">
<g id="graph0" class="graph" transform="scale(1 1) rotate(0) translate(4 253.25)">
<title>ControllerBrokerMetadata</title>
<polygon fill="white" stroke="none" points="-4,4 -4,-253.25 818.88,-253.25 818.88,4 -4,4"/>
<!-- Controller -->
<g id="node1" class="node">
<title>Controller</title>
<ellipse fill="none" stroke="black" cx="93.82" cy="-107" rx="93.82" ry="18"/>
<text xml:space="preserve" text-anchor="middle" x="93.82" y="-102.33" font-family="Times,serif" font-size="14.00">KRaft Controller</text>
</g>
<!-- MetadataLog -->
<g id="node2" class="node">
<title>MetadataLog</title>
<ellipse fill="none" stroke="black" cx="429.57" cy="-107" rx="80.67" ry="18"/>
<text xml:space="preserve" text-anchor="middle" x="429.57" y="-102.33" font-family="Times,serif" font-size="14.00">Metadata Log</text>
</g>
<!-- Controller&#45;&gt;MetadataLog -->
<g id="edge1" class="edge">
<title>Controller&#45;&gt;MetadataLog</title>
<path fill="none" stroke="black" d="M187.79,-107C234.47,-107 290.83,-107 337.28,-107"/>
<polygon fill="black" stroke="black" points="337.04,-110.5 347.04,-107 337.04,-103.5 337.04,-110.5"/>
<text xml:space="preserve" text-anchor="middle" x="268.27" y="-110.95" font-family="Times,serif" font-size="14.00">commit metadata</text>
</g>
<!-- Broker1 -->
<g id="node3" class="node">
<title>Broker1</title>
<ellipse fill="none" stroke="black" cx="712.88" cy="-196" rx="54.89" ry="18"/>
<text xml:space="preserve" text-anchor="middle" x="712.88" y="-191.32" font-family="Times,serif" font-size="14.00">Broker 1</text>
</g>
<!-- MetadataLog&#45;&gt;Broker1 -->
<g id="edge2" class="edge">
<title>MetadataLog&#45;&gt;Broker1</title>
<path fill="none" stroke="black" d="M477.65,-121.9C528.61,-138.02 609.57,-163.63 661.71,-180.13"/>
<polygon fill="black" stroke="black" points="660.34,-183.37 670.93,-183.04 662.45,-176.69 660.34,-183.37"/>
<text xml:space="preserve" text-anchor="middle" x="584.11" y="-176.08" font-family="Times,serif" font-size="14.00">metadata event</text>
</g>
<!-- Broker2 -->
<g id="node4" class="node">
<title>Broker2</title>
<ellipse fill="none" stroke="black" cx="712.88" cy="-107" rx="54.89" ry="18"/>
<text xml:space="preserve" text-anchor="middle" x="712.88" y="-102.33" font-family="Times,serif" font-size="14.00">Broker 2</text>
</g>
<!-- MetadataLog&#45;&gt;Broker2 -->
<g id="edge3" class="edge">
<title>MetadataLog&#45;&gt;Broker2</title>
<path fill="none" stroke="black" d="M510.43,-107C553.39,-107 605.73,-107 646.29,-107"/>
<polygon fill="black" stroke="black" points="646.16,-110.5 656.16,-107 646.16,-103.5 646.16,-110.5"/>
</g>
<!-- Broker3 -->
<g id="node5" class="node">
<title>Broker3</title>
<ellipse fill="none" stroke="black" cx="712.88" cy="-18" rx="54.89" ry="18"/>
<text xml:space="preserve" text-anchor="middle" x="712.88" y="-13.32" font-family="Times,serif" font-size="14.00">Broker 3</text>
</g>
<!-- MetadataLog&#45;&gt;Broker3 -->
<g id="edge4" class="edge">
<title>MetadataLog&#45;&gt;Broker3</title>
<path fill="none" stroke="black" d="M477.65,-92.1C528.61,-75.98 609.57,-50.37 661.71,-33.87"/>
<polygon fill="black" stroke="black" points="662.45,-37.31 670.93,-30.96 660.34,-30.63 662.45,-37.31"/>
</g>
<!-- Broker1&#45;&gt;Broker1 -->
<g id="edge5" class="edge">
<title>Broker1&#45;&gt;Broker1</title>
<path fill="none" stroke="black" d="M690.24,-212.66C685.21,-222.62 692.76,-232 712.88,-232 724.82,-232 732.34,-228.69 735.42,-223.92"/>
<polygon fill="black" stroke="black" points="738.91,-224.21 735.5,-214.18 731.91,-224.15 738.91,-224.21"/>
<text xml:space="preserve" text-anchor="middle" x="712.88" y="-235.95" font-family="Times,serif" font-size="14.00">update local metadata cache</text>
</g>
<!-- Broker2&#45;&gt;Broker2 -->
<g id="edge6" class="edge">
<title>Broker2&#45;&gt;Broker2</title>
<path fill="none" stroke="black" d="M690.24,-123.66C685.21,-133.62 692.76,-143 712.88,-143 724.82,-143 732.34,-139.69 735.42,-134.92"/>
<polygon fill="black" stroke="black" points="738.91,-135.21 735.5,-125.18 731.91,-135.15 738.91,-135.21"/>
<text xml:space="preserve" text-anchor="middle" x="712.88" y="-146.95" font-family="Times,serif" font-size="14.00">update local metadata cache</text>
</g>
<!-- Broker3&#45;&gt;Broker3 -->
<g id="edge7" class="edge">
<title>Broker3&#45;&gt;Broker3</title>
<path fill="none" stroke="black" d="M690.24,-34.66C685.21,-44.62 692.76,-54 712.88,-54 724.82,-54 732.34,-50.69 735.42,-45.92"/>
<polygon fill="black" stroke="black" points="738.91,-46.21 735.5,-36.18 731.91,-46.15 738.91,-46.21"/>
<text xml:space="preserve" text-anchor="middle" x="712.88" y="-57.95" font-family="Times,serif" font-size="14.00">update local metadata cache</text>
</g>
</g>
</svg>
