<?xml version="1.0" encoding="UTF-8" standalone="no"?>
<!DOCTYPE svg PUBLIC "-//W3C//DTD SVG 1.1//EN"
 "http://www.w3.org/Graphics/SVG/1.1/DTD/svg11.dtd">
<!-- Generated by graphviz version 14.1.2 (0)
 -->
<!-- Title: ControllerFailure Pages: 1 -->
<svg width="632pt" height="248pt"
 viewBox="0.00 0.00 632.00 248.00" xmlns="http://www.w3.org/2000/svg" xmlns:xlink="http://www.w3.org/1999/xlink">
<g id="graph0" class="graph" transform="scale(1 1) rotate(0) translate(4 244.3)">
<title>ControllerFailure</title>
<polygon fill="white" stroke="none" points="-4,4 -4,-244.3 627.9,-244.3 627.9,4 -4,4"/>
<!-- C1 -->
<g id="node1" class="node">
<title>C1</title>
<ellipse fill="none" stroke="black" cx="72.3" cy="-198.05" rx="72.3" ry="42.25"/>
<text xml:space="preserve" text-anchor="middle" x="72.3" y="-210.63" font-family="Times,serif" font-size="14.00">Controller 1</text>
<text xml:space="preserve" text-anchor="middle" x="72.3" y="-193.38" font-family="Times,serif" font-size="14.00">LEADER</text>
<text xml:space="preserve" text-anchor="middle" x="72.3" y="-176.13" font-family="Times,serif" font-size="14.00">FAILED</text>
</g>
<!-- Election -->
<g id="node4" class="node">
<title>Election</title>
<ellipse fill="none" stroke="black" cx="323.03" cy="-108.05" rx="95.93" ry="18"/>
<text xml:space="preserve" text-anchor="middle" x="323.03" y="-103.38" font-family="Times,serif" font-size="14.00">Quorum Election</text>
</g>
<!-- C1&#45;&gt;Election -->
<g id="edge1" class="edge">
<title>C1&#45;&gt;Election</title>
<path fill="none" stroke="black" d="M134.47,-175.92C174.83,-161.31 227.29,-142.33 266.46,-128.16"/>
<polygon fill="black" stroke="black" points="267.5,-131.5 275.72,-124.81 265.12,-124.92 267.5,-131.5"/>
<text xml:space="preserve" text-anchor="middle" x="185.85" y="-167.71" font-family="Times,serif" font-size="14.00">failure</text>
</g>
<!-- C2 -->
<g id="node2" class="node">
<title>C2</title>
<ellipse fill="none" stroke="black" cx="72.3" cy="-108.05" rx="72.3" ry="30.05"/>
<text xml:space="preserve" text-anchor="middle" x="72.3" y="-112" font-family="Times,serif" font-size="14.00">Controller 2</text>
<text xml:space="preserve" text-anchor="middle" x="72.3" y="-94.75" font-family="Times,serif" font-size="14.00">FOLLOWER</text>
</g>
<!-- C2&#45;&gt;Election -->
<g id="edge2" class="edge">
<title>C2&#45;&gt;Election</title>
<path fill="none" stroke="black" d="M144.91,-108.05C166.96,-108.05 191.73,-108.05 215.6,-108.05"/>
<polygon fill="black" stroke="black" points="215.35,-111.55 225.35,-108.05 215.35,-104.55 215.35,-111.55"/>
</g>
<!-- C3 -->
<g id="node3" class="node">
<title>C3</title>
<ellipse fill="none" stroke="black" cx="72.3" cy="-30.05" rx="72.3" ry="30.05"/>
<text xml:space="preserve" text-anchor="middle" x="72.3" y="-34" font-family="Times,serif" font-size="14.00">Controller 3</text>
<text xml:space="preserve" text-anchor="middle" x="72.3" y="-16.75" font-family="Times,serif" font-size="14.00">FOLLOWER</text>
</g>
<!-- C3&#45;&gt;Election -->
<g id="edge3" class="edge">
<title>C3&#45;&gt;Election</title>
<path fill="none" stroke="black" d="M130.68,-48.04C169.76,-60.3 221.41,-76.5 261.21,-88.98"/>
<polygon fill="black" stroke="black" points="260.06,-92.29 270.65,-91.94 262.16,-85.61 260.06,-92.29"/>
</g>
<!-- NewLeader -->
<g id="node5" class="node">
<title>NewLeader</title>
<ellipse fill="none" stroke="black" cx="539.93" cy="-108.05" rx="83.97" ry="30.05"/>
<text xml:space="preserve" text-anchor="middle" x="539.93" y="-112" font-family="Times,serif" font-size="14.00">Controller 2</text>
<text xml:space="preserve" text-anchor="middle" x="539.93" y="-94.75" font-family="Times,serif" font-size="14.00">NEW LEADER</text>
</g>
<!-- Election&#45;&gt;NewLeader -->
<g id="edge4" class="edge">
<title>Election&#45;&gt;NewLeader</title>
<path fill="none" stroke="black" d="M419.23,-108.05C427.56,-108.05 436,-108.05 444.33,-108.05"/>
<polygon fill="black" stroke="black" points="444.09,-111.55 454.09,-108.05 444.09,-104.55 444.09,-111.55"/>
</g>
</g>
</svg>
