<?xml version="1.0" encoding="UTF-8" standalone="no"?>
<!DOCTYPE svg PUBLIC "-//W3C//DTD SVG 1.1//EN"
 "http://www.w3.org/Graphics/SVG/1.1/DTD/svg11.dtd">
<!-- Generated by graphviz version 14.1.2 (0)
 -->
<!-- Title: KafkaCluster Pages: 1 -->
<svg width="924pt" height="605pt"
 viewBox="0.00 0.00 924.00 605.00" xmlns="http://www.w3.org/2000/svg" xmlns:xlink="http://www.w3.org/1999/xlink">
<g id="graph0" class="graph" transform="scale(1 1) rotate(0) translate(4 601)">
<title>KafkaCluster</title>
<polygon fill="white" stroke="none" points="-4,4 -4,-601 920.45,-601 920.45,4 -4,4"/>
<g id="clust1" class="cluster">
<title>cluster_brokers</title>
<path fill="none" stroke="black" d="M311.93,-8C311.93,-8 671.25,-8 671.25,-8 677.25,-8 683.25,-14 683.25,-20 683.25,-20 683.25,-577 683.25,-577 683.25,-583 677.25,-589 671.25,-589 671.25,-589 311.93,-589 311.93,-589 305.93,-589 299.93,-583 299.93,-577 299.93,-577 299.93,-20 299.93,-20 299.93,-14 305.93,-8 311.93,-8"/>
<text xml:space="preserve" text-anchor="middle" x="491.59" y="-571.7" font-family="Times,serif" font-size="14.00">Kafka Cluster</text>
</g>
<!-- Producer1 -->
<g id="node1" class="node">
<title>Producer1</title>
<ellipse fill="none" stroke="black" cx="66.47" cy="-465" rx="66.47" ry="18"/>
<text xml:space="preserve" text-anchor="middle" x="66.47" y="-460.32" font-family="Times,serif" font-size="14.00">Producer 1</text>
</g>
<!-- Broker1 -->
<g id="node3" class="node">
<title>Broker1</title>
<ellipse fill="none" stroke="black" cx="373.34" cy="-465" rx="65.41" ry="30.05"/>
<text xml:space="preserve" text-anchor="middle" x="373.34" y="-468.95" font-family="Times,serif" font-size="14.00">Broker 1</text>
<text xml:space="preserve" text-anchor="middle" x="373.34" y="-451.7" font-family="Times,serif" font-size="14.00">Node ID: 1</text>
</g>
<!-- Producer1&#45;&gt;Broker1 -->
<g id="edge7" class="edge">
<title>Producer1&#45;&gt;Broker1</title>
<path fill="none" stroke="black" d="M133.05,-465C133.05,-465 296.16,-465 296.16,-465"/>
<polygon fill="black" stroke="black" points="296.16,-468.5 306.16,-465 296.16,-461.5 296.16,-468.5"/>
<text xml:space="preserve" text-anchor="middle" x="220.43" y="-468.95" font-family="Times,serif" font-size="14.00">ProduceRequest</text>
</g>
<!-- Producer2 -->
<g id="node2" class="node">
<title>Producer2</title>
<ellipse fill="none" stroke="black" cx="66.47" cy="-89" rx="66.47" ry="18"/>
<text xml:space="preserve" text-anchor="middle" x="66.47" y="-84.33" font-family="Times,serif" font-size="14.00">Producer 2</text>
</g>
<!-- Broker2 -->
<g id="node4" class="node">
<title>Broker2</title>
<ellipse fill="none" stroke="black" cx="373.34" cy="-89" rx="65.41" ry="30.05"/>
<text xml:space="preserve" text-anchor="middle" x="373.34" y="-92.95" font-family="Times,serif" font-size="14.00">Broker 2</text>
<text xml:space="preserve" text-anchor="middle" x="373.34" y="-75.7" font-family="Times,serif" font-size="14.00">Node ID: 2</text>
</g>
<!-- Producer2&#45;&gt;Broker2 -->
<g id="edge8" class="edge">
<title>Producer2&#45;&gt;Broker2</title>
<path fill="none" stroke="black" d="M133.05,-89C133.05,-89 296.16,-89 296.16,-89"/>
<polygon fill="black" stroke="black" points="296.16,-92.5 306.16,-89 296.16,-85.5 296.16,-92.5"/>
<text xml:space="preserve" text-anchor="middle" x="220.43" y="-92.95" font-family="Times,serif" font-size="14.00">ProduceRequest</text>
</g>
<!-- P0 -->
<g id="node6" class="node">
<title>P0</title>
<ellipse fill="none" stroke="black" cx="610.37" cy="-514" rx="64.88" ry="42.25"/>
<text xml:space="preserve" text-anchor="middle" x="610.37" y="-526.58" font-family="Times,serif" font-size="14.00">Topic A</text>
<text xml:space="preserve" text-anchor="middle" x="610.37" y="-509.32" font-family="Times,serif" font-size="14.00">Partition 0</text>
<text xml:space="preserve" text-anchor="middle" x="610.37" y="-492.07" font-family="Times,serif" font-size="14.00">Leader</text>
</g>
<!-- Broker1&#45;&gt;P0 -->
<g id="edge1" class="edge">
<title>Broker1&#45;&gt;P0</title>
<path fill="none" stroke="black" d="M425.94,-483.4C425.94,-483.4 553.59,-483.4 553.59,-483.4"/>
<polygon fill="black" stroke="black" points="553.59,-486.9 563.59,-483.4 553.59,-479.9 553.59,-486.9"/>
<text xml:space="preserve" text-anchor="middle" x="492.12" y="-507.95" font-family="Times,serif" font-size="14.00">hosts</text>
</g>
<!-- R2 -->
<g id="node11" class="node">
<title>R2</title>
<ellipse fill="none" stroke="black" cx="610.37" cy="-418" rx="64.36" ry="18"/>
<text xml:space="preserve" text-anchor="middle" x="610.37" y="-413.32" font-family="Times,serif" font-size="14.00">P2 Replica</text>
</g>
<!-- Broker1&#45;&gt;R2 -->
<g id="edge6" class="edge">
<title>Broker1&#45;&gt;R2</title>
<path fill="none" stroke="black" d="M373.45,-434.63C373.45,-425.32 373.45,-417.47 373.45,-417.47 373.45,-417.47 534.12,-417.47 534.12,-417.47"/>
<polygon fill="black" stroke="black" points="534.12,-420.97 544.12,-417.47 534.12,-413.97 534.12,-420.97"/>
<text xml:space="preserve" text-anchor="middle" x="492.12" y="-430.95" font-family="Times,serif" font-size="14.00">replica</text>
</g>
<!-- P1 -->
<g id="node7" class="node">
<title>P1</title>
<ellipse fill="none" stroke="black" cx="610.37" cy="-130" rx="64.88" ry="42.25"/>
<text xml:space="preserve" text-anchor="middle" x="610.37" y="-142.57" font-family="Times,serif" font-size="14.00">Topic A</text>
<text xml:space="preserve" text-anchor="middle" x="610.37" y="-125.33" font-family="Times,serif" font-size="14.00">Partition 1</text>
<text xml:space="preserve" text-anchor="middle" x="610.37" y="-108.08" font-family="Times,serif" font-size="14.00">Leader</text>
</g>
<!-- Broker2&#45;&gt;P1 -->
<g id="edge2" class="edge">
<title>Broker2&#45;&gt;P1</title>
<path fill="none" stroke="black" d="M431.32,-103.4C431.32,-103.4 547.91,-103.4 547.91,-103.4"/>
<polygon fill="black" stroke="black" points="547.91,-106.9 557.91,-103.4 547.91,-99.9 547.91,-106.9"/>
<text xml:space="preserve" text-anchor="middle" x="492.12" y="-123.95" font-family="Times,serif" font-size="14.00">hosts</text>
</g>
<!-- R0 -->
<g id="node9" class="node">
<title>R0</title>
<ellipse fill="none" stroke="black" cx="610.37" cy="-34" rx="64.36" ry="18"/>
<text xml:space="preserve" text-anchor="middle" x="610.37" y="-29.32" font-family="Times,serif" font-size="14.00">P0 Replica</text>
</g>
<!-- Broker2&#45;&gt;R0 -->
<g id="edge4" class="edge">
<title>Broker2&#45;&gt;R0</title>
<path fill="none" stroke="black" d="M429.83,-73.35C499.96,-73.35 610.45,-73.35 610.45,-73.35 610.45,-73.35 610.45,-63.81 610.45,-63.81"/>
<polygon fill="black" stroke="black" points="613.95,-63.81 610.45,-53.81 606.95,-63.81 613.95,-63.81"/>
<text xml:space="preserve" text-anchor="middle" x="492.12" y="-60.95" font-family="Times,serif" font-size="14.00">replica</text>
</g>
<!-- Broker3 -->
<g id="node5" class="node">
<title>Broker3</title>
<ellipse fill="none" stroke="black" cx="373.34" cy="-293" rx="65.41" ry="30.05"/>
<text xml:space="preserve" text-anchor="middle" x="373.34" y="-296.95" font-family="Times,serif" font-size="14.00">Broker 3</text>
<text xml:space="preserve" text-anchor="middle" x="373.34" y="-279.7" font-family="Times,serif" font-size="14.00">Node ID: 3</text>
</g>
<!-- P2 -->
<g id="node8" class="node">
<title>P2</title>
<ellipse fill="none" stroke="black" cx="610.37" cy="-250" rx="64.88" ry="42.25"/>
<text xml:space="preserve" text-anchor="middle" x="610.37" y="-262.57" font-family="Times,serif" font-size="14.00">Topic A</text>
<text xml:space="preserve" text-anchor="middle" x="610.37" y="-245.32" font-family="Times,serif" font-size="14.00">Partition 2</text>
<text xml:space="preserve" text-anchor="middle" x="610.37" y="-228.07" font-family="Times,serif" font-size="14.00">Leader</text>
</g>
<!-- Broker3&#45;&gt;P2 -->
<g id="edge3" class="edge">
<title>Broker3&#45;&gt;P2</title>
<path fill="none" stroke="black" d="M430.11,-277.6C430.11,-277.6 548.98,-277.6 548.98,-277.6"/>
<polygon fill="black" stroke="black" points="548.98,-281.1 558.98,-277.6 548.98,-274.1 548.98,-281.1"/>
<text xml:space="preserve" text-anchor="middle" x="492.12" y="-262.95" font-family="Times,serif" font-size="14.00">hosts</text>
</g>
<!-- R1 -->
<g id="node10" class="node">
<title>R1</title>
<ellipse fill="none" stroke="black" cx="610.37" cy="-346" rx="64.36" ry="18"/>
<text xml:space="preserve" text-anchor="middle" x="610.37" y="-341.32" font-family="Times,serif" font-size="14.00">P1 Replica</text>
</g>
<!-- Broker3&#45;&gt;R1 -->
<g id="edge5" class="edge">
<title>Broker3&#45;&gt;R1</title>
<path fill="none" stroke="black" d="M431.04,-307.65C501.23,-307.65 610.45,-307.65 610.45,-307.65 610.45,-307.65 610.45,-316.21 610.45,-316.21"/>
<polygon fill="black" stroke="black" points="606.95,-316.21 610.45,-326.21 613.95,-316.21 606.95,-316.21"/>
<text xml:space="preserve" text-anchor="middle" x="492.12" y="-330.95" font-family="Times,serif" font-size="14.00">replica</text>
</g>
<!-- Consumer1 -->
<g id="node12" class="node">
<title>Consumer1</title>
<ellipse fill="none" stroke="black" cx="844.73" cy="-514" rx="71.73" ry="18"/>
<text xml:space="preserve" text-anchor="middle" x="844.73" y="-509.32" font-family="Times,serif" font-size="14.00">Consumer 1</text>
</g>
<!-- P0&#45;&gt;Consumer1 -->
<g id="edge9" class="edge">
<title>P0&#45;&gt;Consumer1</title>
<path fill="none" stroke="black" d="M675.65,-514C675.65,-514 761.29,-514 761.29,-514"/>
<polygon fill="black" stroke="black" points="761.29,-517.5 771.29,-514 761.29,-510.5 761.29,-517.5"/>
<text xml:space="preserve" text-anchor="middle" x="724.12" y="-517.95" font-family="Times,serif" font-size="14.00">Fetch</text>
</g>
<!-- Consumer2 -->
<g id="node13" class="node">
<title>Consumer2</title>
<ellipse fill="none" stroke="black" cx="844.73" cy="-130" rx="71.73" ry="18"/>
<text xml:space="preserve" text-anchor="middle" x="844.73" y="-125.33" font-family="Times,serif" font-size="14.00">Consumer 2</text>
</g>
<!-- P1&#45;&gt;Consumer2 -->
<g id="edge10" class="edge">
<title>P1&#45;&gt;Consumer2</title>
<path fill="none" stroke="black" d="M675.65,-130C675.65,-130 761.29,-130 761.29,-130"/>
<polygon fill="black" stroke="black" points="761.29,-133.5 771.29,-130 761.29,-126.5 761.29,-133.5"/>
<text xml:space="preserve" text-anchor="middle" x="724.12" y="-133.95" font-family="Times,serif" font-size="14.00">Fetch</text>
</g>
<!-- Consumer3 -->
<g id="node14" class="node">
<title>Consumer3</title>
<ellipse fill="none" stroke="black" cx="844.73" cy="-250" rx="71.73" ry="18"/>
<text xml:space="preserve" text-anchor="middle" x="844.73" y="-245.32" font-family="Times,serif" font-size="14.00">Consumer 3</text>
</g>
<!-- P2&#45;&gt;Consumer3 -->
<g id="edge11" class="edge">
<title>P2&#45;&gt;Consumer3</title>
<path fill="none" stroke="black" d="M675.65,-250C675.65,-250 761.29,-250 761.29,-250"/>
<polygon fill="black" stroke="black" points="761.29,-253.5 771.29,-250 761.29,-246.5 761.29,-253.5"/>
<text xml:space="preserve" text-anchor="middle" x="724.12" y="-253.95" font-family="Times,serif" font-size="14.00">Fetch</text>
</g>
</g>
</svg>
