<?xml version="1.0" encoding="UTF-8" standalone="no"?>
<!DOCTYPE svg PUBLIC "-//W3C//DTD SVG 1.1//EN"
 "http://www.w3.org/Graphics/SVG/1.1/DTD/svg11.dtd">
<!-- Generated by graphviz version 14.1.2 (0)
 -->
<!-- Title: KafkaRequestPipeline Pages: 1 -->
<svg width="2544pt" height="152pt"
 viewBox="0.00 0.00 2544.00 152.00" xmlns="http://www.w3.org/2000/svg" xmlns:xlink="http://www.w3.org/1999/xlink">
<g id="graph0" class="graph" transform="scale(1 1) rotate(0) translate(4 148)">
<title>KafkaRequestPipeline</title>
<polygon fill="white" stroke="none" points="-4,4 -4,-148 2539.77,-148 2539.77,4 -4,4"/>
<!-- Client -->
<g id="node1" class="node">
<title>Client</title>
<ellipse fill="none" stroke="black" cx="72.78" cy="-72" rx="72.78" ry="18"/>
<text xml:space="preserve" text-anchor="middle" x="72.78" y="-67.33" font-family="Times,serif" font-size="14.00">Kafka Client</text>
</g>
<!-- Acceptor -->
<g id="node2" class="node">
<title>Acceptor</title>
<ellipse fill="none" stroke="black" cx="266.22" cy="-72" rx="55.42" ry="18"/>
<text xml:space="preserve" text-anchor="middle" x="266.22" y="-67.33" font-family="Times,serif" font-size="14.00">Acceptor</text>
</g>
<!-- Client&#45;&gt;Acceptor -->
<g id="edge1" class="edge">
<title>Client&#45;&gt;Acceptor</title>
<path fill="none" stroke="black" d="M145.88,-72C163.45,-72 182.14,-72 199.4,-72"/>
<polygon fill="black" stroke="black" points="198.99,-75.5 208.99,-72 198.99,-68.5 198.99,-75.5"/>
<text xml:space="preserve" text-anchor="middle" x="178.18" y="-75.95" font-family="Times,serif" font-size="14.00">TCP</text>
</g>
<!-- Processor -->
<g id="node3" class="node">
<title>Processor</title>
<ellipse fill="none" stroke="black" cx="464.07" cy="-72" rx="60.68" ry="18"/>
<text xml:space="preserve" text-anchor="middle" x="464.07" y="-67.33" font-family="Times,serif" font-size="14.00">Processor</text>
</g>
<!-- Acceptor&#45;&gt;Processor -->
<g id="edge2" class="edge">
<title>Acceptor&#45;&gt;Processor</title>
<path fill="none" stroke="black" d="M322.04,-72C343.63,-72 368.71,-72 391.68,-72"/>
<polygon fill="black" stroke="black" points="391.6,-75.5 401.6,-72 391.6,-68.5 391.6,-75.5"/>
<text xml:space="preserve" text-anchor="middle" x="362.52" y="-75.95" font-family="Times,serif" font-size="14.00">socket</text>
</g>
<!-- RequestQueue -->
<g id="node4" class="node">
<title>RequestQueue</title>
<ellipse fill="none" stroke="black" cx="712.54" cy="-72" rx="93.3" ry="18"/>
<text xml:space="preserve" text-anchor="middle" x="712.54" y="-67.33" font-family="Times,serif" font-size="14.00">RequestChannel</text>
</g>
<!-- Processor&#45;&gt;RequestQueue -->
<g id="edge3" class="edge">
<title>Processor&#45;&gt;RequestQueue</title>
<path fill="none" stroke="black" d="M525.05,-72C549.96,-72 579.59,-72 607.83,-72"/>
<polygon fill="black" stroke="black" points="607.47,-75.5 617.47,-72 607.47,-68.5 607.47,-75.5"/>
<text xml:space="preserve" text-anchor="middle" x="572" y="-75.95" font-family="Times,serif" font-size="14.00">Request</text>
</g>
<!-- Handler -->
<g id="node5" class="node">
<title>Handler</title>
<ellipse fill="none" stroke="black" cx="1030.08" cy="-72" rx="127.49" ry="18"/>
<text xml:space="preserve" text-anchor="middle" x="1030.08" y="-67.33" font-family="Times,serif" font-size="14.00">Kafka Request Handler</text>
</g>
<!-- RequestQueue&#45;&gt;Handler -->
<g id="edge4" class="edge">
<title>RequestQueue&#45;&gt;Handler</title>
<path fill="none" stroke="black" d="M806.08,-72C832.65,-72 862.22,-72 890.91,-72"/>
<polygon fill="black" stroke="black" points="890.76,-75.5 900.76,-72 890.76,-68.5 890.76,-75.5"/>
<text xml:space="preserve" text-anchor="middle" x="854.22" y="-75.95" font-family="Times,serif" font-size="14.00">dequeue</text>
</g>
<!-- KafkaApis -->
<g id="node6" class="node">
<title>KafkaApis</title>
<ellipse fill="none" stroke="black" cx="1255.78" cy="-72" rx="61.2" ry="18"/>
<text xml:space="preserve" text-anchor="middle" x="1255.78" y="-67.33" font-family="Times,serif" font-size="14.00">KafkaApis</text>
</g>
<!-- Handler&#45;&gt;KafkaApis -->
<g id="edge5" class="edge">
<title>Handler&#45;&gt;KafkaApis</title>
<path fill="none" stroke="black" d="M1157.97,-72C1166.38,-72 1174.68,-72 1182.67,-72"/>
<polygon fill="black" stroke="black" points="1182.61,-75.5 1192.61,-72 1182.61,-68.5 1182.61,-75.5"/>
</g>
<!-- HandlerType -->
<g id="node7" class="node">
<title>HandlerType</title>
<ellipse fill="none" stroke="black" cx="1433.6" cy="-72" rx="79.62" ry="18"/>
<text xml:space="preserve" text-anchor="middle" x="1433.6" y="-67.33" font-family="Times,serif" font-size="14.00">Request Type</text>
</g>
<!-- KafkaApis&#45;&gt;HandlerType -->
<g id="edge6" class="edge">
<title>KafkaApis&#45;&gt;HandlerType</title>
<path fill="none" stroke="black" d="M1317.29,-72C1325.35,-72 1333.75,-72 1342.18,-72"/>
<polygon fill="black" stroke="black" points="1342.15,-75.5 1352.15,-72 1342.15,-68.5 1342.15,-75.5"/>
</g>
<!-- ReplicaManager -->
<g id="node8" class="node">
<title>ReplicaManager</title>
<ellipse fill="none" stroke="black" cx="1800.1" cy="-126" rx="92.77" ry="18"/>
<text xml:space="preserve" text-anchor="middle" x="1800.1" y="-121.33" font-family="Times,serif" font-size="14.00">ReplicaManager</text>
</g>
<!-- HandlerType&#45;&gt;ReplicaManager -->
<g id="edge7" class="edge">
<title>HandlerType&#45;&gt;ReplicaManager</title>
<path fill="none" stroke="black" d="M1490.38,-85.03C1503.72,-87.9 1517.94,-90.74 1531.22,-93 1588.89,-102.8 1654.02,-110.89 1705.62,-116.61"/>
<polygon fill="black" stroke="black" points="1704.92,-120.05 1715.24,-117.66 1705.68,-113.09 1704.92,-120.05"/>
<text xml:space="preserve" text-anchor="middle" x="1591.6" y="-113.84" font-family="Times,serif" font-size="14.00">Produce / Fetch</text>
</g>
<!-- GroupCoordinator -->
<g id="node9" class="node">
<title>GroupCoordinator</title>
<ellipse fill="none" stroke="black" cx="1800.1" cy="-72" rx="102.24" ry="18"/>
<text xml:space="preserve" text-anchor="middle" x="1800.1" y="-67.33" font-family="Times,serif" font-size="14.00">GroupCoordinator</text>
</g>
<!-- HandlerType&#45;&gt;GroupCoordinator -->
<g id="edge8" class="edge">
<title>HandlerType&#45;&gt;GroupCoordinator</title>
<path fill="none" stroke="black" d="M1513.69,-72C1564.13,-72 1630.29,-72 1686.21,-72"/>
<polygon fill="black" stroke="black" points="1686.1,-75.5 1696.1,-72 1686.1,-68.5 1686.1,-75.5"/>
<text xml:space="preserve" text-anchor="middle" x="1591.6" y="-75.95" font-family="Times,serif" font-size="14.00">Group APIs</text>
</g>
<!-- TransactionCoordinator -->
<g id="node10" class="node">
<title>TransactionCoordinator</title>
<ellipse fill="none" stroke="black" cx="1800.1" cy="-18" rx="130.12" ry="18"/>
<text xml:space="preserve" text-anchor="middle" x="1800.1" y="-13.32" font-family="Times,serif" font-size="14.00">TransactionCoordinator</text>
</g>
<!-- HandlerType&#45;&gt;TransactionCoordinator -->
<g id="edge9" class="edge">
<title>HandlerType&#45;&gt;TransactionCoordinator</title>
<path fill="none" stroke="black" d="M1489.86,-58.9C1503.35,-55.97 1517.76,-53.05 1531.22,-50.75 1580.39,-42.36 1635,-35.28 1682.01,-29.88"/>
<polygon fill="black" stroke="black" points="1682.12,-33.39 1691.66,-28.78 1681.33,-26.43 1682.12,-33.39"/>
<text xml:space="preserve" text-anchor="middle" x="1591.6" y="-54.7" font-family="Times,serif" font-size="14.00">Transaction APIs</text>
</g>
<!-- ResponseQueue -->
<g id="node11" class="node">
<title>ResponseQueue</title>
<ellipse fill="none" stroke="black" cx="2061.57" cy="-72" rx="94.35" ry="18"/>
<text xml:space="preserve" text-anchor="middle" x="2061.57" y="-67.33" font-family="Times,serif" font-size="14.00">Response Queue</text>
</g>
<!-- ReplicaManager&#45;&gt;ResponseQueue -->
<g id="edge10" class="edge">
<title>ReplicaManager&#45;&gt;ResponseQueue</title>
<path fill="none" stroke="black" d="M1864.9,-112.72C1901.37,-105.13 1947.3,-95.57 1985.49,-87.62"/>
<polygon fill="black" stroke="black" points="1986,-91.09 1995.08,-85.63 1984.58,-84.24 1986,-91.09"/>
</g>
<!-- GroupCoordinator&#45;&gt;ResponseQueue -->
<g id="edge11" class="edge">
<title>GroupCoordinator&#45;&gt;ResponseQueue</title>
<path fill="none" stroke="black" d="M1902.53,-72C1919.9,-72 1937.99,-72 1955.46,-72"/>
<polygon fill="black" stroke="black" points="1955.32,-75.5 1965.32,-72 1955.32,-68.5 1955.32,-75.5"/>
</g>
<!-- TransactionCoordinator&#45;&gt;ResponseQueue -->
<g id="edge12" class="edge">
<title>TransactionCoordinator&#45;&gt;ResponseQueue</title>
<path fill="none" stroke="black" d="M1874.07,-33.19C1908.83,-40.42 1950.36,-49.06 1985.4,-56.36"/>
<polygon fill="black" stroke="black" points="1984.55,-59.75 1995.05,-58.36 1985.97,-52.9 1984.55,-59.75"/>
</g>
<!-- ProcessorOut -->
<g id="node12" class="node">
<title>ProcessorOut</title>
<ellipse fill="none" stroke="black" cx="2253.6" cy="-72" rx="60.68" ry="18"/>
<text xml:space="preserve" text-anchor="middle" x="2253.6" y="-67.33" font-family="Times,serif" font-size="14.00">Processor</text>
</g>
<!-- ResponseQueue&#45;&gt;ProcessorOut -->
<g id="edge13" class="edge">
<title>ResponseQueue&#45;&gt;ProcessorOut</title>
<path fill="none" stroke="black" d="M2156.19,-72C2164.6,-72 2173.02,-72 2181.19,-72"/>
<polygon fill="black" stroke="black" points="2181.03,-75.5 2191.03,-72 2181.03,-68.5 2181.03,-75.5"/>
</g>
<!-- ClientResponse -->
<g id="node13" class="node">
<title>ClientResponse</title>
<ellipse fill="none" stroke="black" cx="2443.52" cy="-72" rx="92.24" ry="18"/>
<text xml:space="preserve" text-anchor="middle" x="2443.52" y="-67.33" font-family="Times,serif" font-size="14.00">Client Response</text>
</g>
<!-- ProcessorOut&#45;&gt;ClientResponse -->
<g id="edge14" class="edge">
<title>ProcessorOut&#45;&gt;ClientResponse</title>
<path fill="none" stroke="black" d="M2314.57,-72C2322.64,-72 2331.09,-72 2339.64,-72"/>
<polygon fill="black" stroke="black" points="2339.41,-75.5 2349.41,-72 2339.41,-68.5 2339.41,-75.5"/>
</g>
</g>
</svg>
