<?xml version="1.0" encoding="UTF-8" standalone="no"?>
<!DOCTYPE svg PUBLIC "-//W3C//DTD SVG 1.1//EN"
 "http://www.w3.org/Graphics/SVG/1.1/DTD/svg11.dtd">
<!-- Generated by graphviz version 14.1.2 (0)
 -->
<!-- Title: KRaftArchitecture Pages: 1 -->
<svg width="406pt" height="426pt"
 viewBox="0.00 0.00 406.00 426.00" xmlns="http://www.w3.org/2000/svg" xmlns:xlink="http://www.w3.org/1999/xlink">
<g id="graph0" class="graph" transform="scale(1 1) rotate(0) translate(4 422)">
<title>KRaftArchitecture</title>
<polygon fill="white" stroke="none" points="-4,4 -4,-422 401.89,-422 401.89,4 -4,4"/>
<g id="clust1" class="cluster">
<title>cluster_controllers</title>
<path fill="none" stroke="black" d="M20,-154.25C20,-154.25 247,-154.25 247,-154.25 253,-154.25 259,-160.25 259,-166.25 259,-166.25 259,-398 259,-398 259,-404 253,-410 247,-410 247,-410 20,-410 20,-410 14,-410 8,-404 8,-398 8,-398 8,-166.25 8,-166.25 8,-160.25 14,-154.25 20,-154.25"/>
<text xml:space="preserve" text-anchor="middle" x="133.5" y="-392.7" font-family="Times,serif" font-size="14.00">KRaft Controller Quorum</text>
</g>
<!-- C1 -->
<g id="node1" class="node">
<title>C1</title>
<ellipse fill="none" stroke="black" cx="179" cy="-358.75" rx="71.73" ry="18"/>
<text xml:space="preserve" text-anchor="middle" x="179" y="-354.07" font-family="Times,serif" font-size="14.00">Controller 1</text>
</g>
<!-- C2 -->
<g id="node2" class="node">
<title>C2</title>
<ellipse fill="none" stroke="black" cx="179" cy="-269.5" rx="71.73" ry="18"/>
<text xml:space="preserve" text-anchor="middle" x="179" y="-264.82" font-family="Times,serif" font-size="14.00">Controller 2</text>
</g>
<!-- C1&#45;&gt;C2 -->
<g id="edge1" class="edge">
<title>C1&#45;&gt;C2</title>
<path fill="none" stroke="black" d="M179,-340.51C179,-328.68 179,-312.7 179,-299"/>
<polygon fill="black" stroke="black" points="182.5,-299.22 179,-289.22 175.5,-299.22 182.5,-299.22"/>
<text xml:space="preserve" text-anchor="middle" x="206.75" y="-309.45" font-family="Times,serif" font-size="14.00">quorum</text>
</g>
<!-- MetadataLog -->
<g id="node7" class="node">
<title>MetadataLog</title>
<ellipse fill="none" stroke="black" cx="215" cy="-107.25" rx="80.67" ry="18"/>
<text xml:space="preserve" text-anchor="middle" x="215" y="-102.58" font-family="Times,serif" font-size="14.00">Metadata Log</text>
</g>
<!-- C1&#45;&gt;MetadataLog -->
<g id="edge4" class="edge">
<title>C1&#45;&gt;MetadataLog</title>
<path fill="none" stroke="black" d="M211.93,-342.5C221.37,-337.13 231.2,-330.47 239,-322.75 251.95,-309.91 255.16,-305.08 260,-287.5 274.78,-233.81 248.84,-170.54 230.6,-135.35"/>
<polygon fill="black" stroke="black" points="233.77,-133.86 225.95,-126.7 227.6,-137.17 233.77,-133.86"/>
</g>
<!-- C3 -->
<g id="node3" class="node">
<title>C3</title>
<ellipse fill="none" stroke="black" cx="115" cy="-180.25" rx="71.73" ry="18"/>
<text xml:space="preserve" text-anchor="middle" x="115" y="-175.57" font-family="Times,serif" font-size="14.00">Controller 3</text>
</g>
<!-- C2&#45;&gt;C3 -->
<g id="edge2" class="edge">
<title>C2&#45;&gt;C3</title>
<path fill="none" stroke="black" d="M161.45,-251.78C156.04,-246.21 150.26,-239.81 145.5,-233.5 139.63,-225.72 134.01,-216.71 129.23,-208.39"/>
<polygon fill="black" stroke="black" points="132.31,-206.73 124.4,-199.68 126.19,-210.12 132.31,-206.73"/>
<text xml:space="preserve" text-anchor="middle" x="173.25" y="-220.2" font-family="Times,serif" font-size="14.00">quorum</text>
</g>
<!-- C2&#45;&gt;MetadataLog -->
<g id="edge5" class="edge">
<title>C2&#45;&gt;MetadataLog</title>
<path fill="none" stroke="black" d="M191.84,-251.49C195.37,-246.01 198.82,-239.73 201,-233.5 212.16,-201.58 214.94,-162.56 215.4,-136.64"/>
<polygon fill="black" stroke="black" points="218.9,-136.93 215.46,-126.91 211.9,-136.89 218.9,-136.93"/>
</g>
<!-- C3&#45;&gt;C1 -->
<g id="edge3" class="edge">
<title>C3&#45;&gt;C1</title>
<path fill="none" stroke="black" d="M90.24,-197.47C62.1,-218.02 22.5,-254.71 42.5,-287.5 58.93,-314.43 89.35,-331.48 117.31,-342.02"/>
<polygon fill="black" stroke="black" points="115.85,-345.22 126.45,-345.25 118.18,-338.62 115.85,-345.22"/>
<text xml:space="preserve" text-anchor="middle" x="70.25" y="-264.82" font-family="Times,serif" font-size="14.00">quorum</text>
</g>
<!-- C3&#45;&gt;MetadataLog -->
<g id="edge6" class="edge">
<title>C3&#45;&gt;MetadataLog</title>
<path fill="none" stroke="black" d="M138.19,-162.78C151.35,-153.44 168.03,-141.6 182.47,-131.34"/>
<polygon fill="black" stroke="black" points="184.22,-134.39 190.35,-125.75 180.17,-128.69 184.22,-134.39"/>
</g>
<!-- B1 -->
<g id="node4" class="node">
<title>B1</title>
<ellipse fill="none" stroke="black" cx="71" cy="-18" rx="54.89" ry="18"/>
<text xml:space="preserve" text-anchor="middle" x="71" y="-13.32" font-family="Times,serif" font-size="14.00">Broker 1</text>
</g>
<!-- B2 -->
<g id="node5" class="node">
<title>B2</title>
<ellipse fill="none" stroke="black" cx="215" cy="-18" rx="54.89" ry="18"/>
<text xml:space="preserve" text-anchor="middle" x="215" y="-13.32" font-family="Times,serif" font-size="14.00">Broker 2</text>
</g>
<!-- B3 -->
<g id="node6" class="node">
<title>B3</title>
<ellipse fill="none" stroke="black" cx="343" cy="-18" rx="54.89" ry="18"/>
<text xml:space="preserve" text-anchor="middle" x="343" y="-13.32" font-family="Times,serif" font-size="14.00">Broker 3</text>
</g>
<!-- MetadataLog&#45;&gt;B1 -->
<g id="edge7" class="edge">
<title>MetadataLog&#45;&gt;B1</title>
<path fill="none" stroke="black" d="M138.79,-100.91C117.88,-95.87 96.89,-86.91 82,-71.25 75.94,-64.88 72.86,-56.05 71.38,-47.47"/>
<polygon fill="black" stroke="black" points="74.88,-47.26 70.39,-37.67 67.92,-47.97 74.88,-47.26"/>
<text xml:space="preserve" text-anchor="middle" x="146.5" y="-57.95" font-family="Times,serif" font-size="14.00">metadata updates</text>
</g>
<!-- MetadataLog&#45;&gt;B2 -->
<g id="edge8" class="edge">
<title>MetadataLog&#45;&gt;B2</title>
<path fill="none" stroke="black" d="M215,-89.01C215,-77.18 215,-61.2 215,-47.5"/>
<polygon fill="black" stroke="black" points="218.5,-47.72 215,-37.72 211.5,-47.72 218.5,-47.72"/>
</g>
<!-- MetadataLog&#45;&gt;B3 -->
<g id="edge9" class="edge">
<title>MetadataLog&#45;&gt;B3</title>
<path fill="none" stroke="black" d="M239.38,-89.63C259.6,-75.85 288.51,-56.14 310.67,-41.04"/>
<polygon fill="black" stroke="black" points="312.46,-44.05 318.75,-35.53 308.52,-38.27 312.46,-44.05"/>
</g>
</g>
</svg>
